<svg xmlns="http://www.w3.org/2000/svg" width="124" height="124" viewBox="0 0 124 124"><defs><style>.cls-1{fill-rule:evenodd}</style></defs><path id="Телефон" class="cls-1" d="M260.008 6455h-52.054a9.118 9.118 0 0 0-9.1 9.1v105.79a9.12 9.12 0 0 0 9.1 9.11h52.052a9.118 9.118 0 0 0 9.1-9.1v-105.8a9.117 9.117 0 0 0-9.098-9.1zm-57.024 16.53h61.994v78.54h-61.994v-78.54zm4.97-12.4h52.052a4.977 4.977 0 0 1 4.972 4.97v3.3h-61.994v-3.3a4.976 4.976 0 0 1 4.97-4.97zm52.054 115.74h-52.054a4.976 4.976 0 0 1-4.97-4.97v-15.7h61.994v15.7a4.976 4.976 0 0 1-4.97 4.97zm-26.027-18.6a8.265 8.265 0 1 0 8.266 8.26 8.268 8.268 0 0 0-8.266-8.26zm0 12.4a4.135 4.135 0 1 1 4.133-4.14 4.143 4.143 0 0 1-4.133 4.14zm-8.266-103.34h8.266a2.065 2.065 0 1 0 0-4.13h-8.266a2.065 2.065 0 1 0 0 4.13zm14.465 0h2.067a2.065 2.065 0 1 0 0-4.13h-2.067a2.065 2.065 0 1 0 0 4.13zm48.793-.89a2.065 2.065 0 0 0-2.922 2.92 19.833 19.833 0 0 1 0 28.01 2.062 2.062 0 0 0 0 2.92 2.055 2.055 0 0 0 2.922 0 23.964 23.964 0 0 0 0-33.85zm-8.7 4.71a2.065 2.065 0 0 0-2.922 2.92 13.57 13.57 0 0 1 0 19.17 2.062 2.062 0 0 0 0 2.92 2.055 2.055 0 0 0 2.922 0 17.7 17.7 0 0 0-.002-25.01zm-98.36-1.79a2.065 2.065 0 0 0-2.922-2.92 23.964 23.964 0 0 0 0 33.85 2.055 2.055 0 0 0 2.922 0 2.062 2.062 0 0 0 0-2.92 19.827 19.827 0 0 1-.002-28.01zm8.7 1.22a2.059 2.059 0 0 0-2.921 0 17.7 17.7 0 0 0 0 25.01 2.053 2.053 0 0 0 2.921 0 2.062 2.062 0 0 0 0-2.92 13.573 13.573 0 0 1 0-19.17 2.065 2.065 0 0 0-.001-2.92z" transform="translate(-172 -6455)"/></svg>